<?xml version="1.0" encoding="iso-8859-1"?>
<!-- Generator: Adobe Illustrator 19.0.0, SVG Export Plug-In . SVG Version: 6.00 Build 0)  -->
<svg version="1.1" id="Capa_1" xmlns="http://www.w3.org/2000/svg" xmlns:xlink="http://www.w3.org/1999/xlink" x="0px" y="0px"
	 viewBox="0 0 512 512" style="enable-background:new 0 0 512 512;" xml:space="preserve">
<path style="fill:#BDBDB5;" d="M19.483,115.24c4.843-9.055,12.812-16.003,20.99-22.214c10.706-8.13,22.058-15.364,33.396-22.586
	c21.822-13.902,44.171-28.031,69.341-34.027c23.214-5.53,47.469-3.808,71.25-1.835c6.896,0.572,13.881,1.182,20.395,3.516
	c7.81,2.798,14.537,7.924,21.035,13.081c6.168,4.895,12.259,9.889,18.268,14.978c2.866,2.427,5.787,4.969,7.465,8.329
	c1.714,3.431,1.965,7.382,2.151,11.213c1.872,38.728,0.115,77.631-5.24,116.033c-14.68,0.721-29.361,1.443-44.041,2.164
	c-3.839,0.189-7.96,0.48-10.957,2.887c-2.368,1.902-3.637,4.829-4.678,7.682c-3.882,10.646-5.81,22.001-5.662,33.332
	c0.119,9.089,2.224,19.245,9.795,24.276c4.226,2.808,9.467,3.517,14.515,4.025c12.688,1.277,25.458,1.748,38.206,1.409
	c1.813-0.048,3.753-0.079,5.278,0.903c1.831,1.181,2.541,3.474,3.05,5.592c3.466,14.417,3.79,29.581,0.942,44.133
	c-0.283,1.444-0.62,2.935-1.522,4.097c-1.844,2.374-5.294,2.576-8.3,2.572c-19.583-0.022-39.166-0.056-58.75-0.101
	c-17.839-0.041-35.814-0.5-53.526-1.601c-18.715-1.163-37.241,3.5-55.958,2.542c-13.186-0.675-27.502-3.894-38.81,2.923
	c-1.238,0.747-2.441,1.635-3.204,2.863c-1.215,1.957-1.125,4.423-0.995,6.722c0.605,10.69,1.209,21.381,1.814,32.072
	c0.151,2.67,0.096,5.808-2.055,7.398c-1.222,0.903-2.828,1.047-4.344,1.14c-14.678,0.905-29.461,0.098-43.953-2.399
	c-1.628-0.281-3.318-0.61-4.638-1.604c-1.98-1.491-2.678-4.107-3.17-6.536c-5.009-24.713-1.717-50.255-2.298-75.464
	c-0.283-12.28-1.491-24.568-0.692-36.825c1.247-19.136,7.279-37.668,7.885-56.868c0.579-18.326-3.724-36.453-0.638-54.792
	C14.055,141.046,12.958,127.441,19.483,115.24z"/>
<g>
	<path style="fill:#F4F4F4;" d="M291.265,475.836c11.017,0.843,21.767-0.052,32.616,0.646c10.523,0.677,21.952,0.145,30.748-6.379
		c7.111-5.274,11.308-13.747,13.155-22.405s1.583-17.61,1.312-26.459c-0.14-4.569-0.281-9.138-0.421-13.708
		c-0.574-18.685-1.148-37.37-1.726-56.055c-0.109-3.516-0.296-7.27-2.375-10.107c-2.814-3.84-8.083-4.735-12.813-5.276
		c-29.056-3.325-59.421-5.89-88.561-5.198c-62.296,1.479-124.591,2.959-186.887,4.438c-2.737,0.065-5.721,0.222-7.773,2.034
		c-1.039,0.917-1.717,2.167-2.324,3.413c-6.77,13.892-7.047,30.027-5.757,45.427s4.011,30.809,2.74,46.211
		c-0.705,8.538-2.612,17.299-0.226,25.527c3.423,11.801,14.913,15.469,25.705,13.778c15.132-2.371,31.19-1.37,46.48-1.449
		c33.493-0.172,66.991,0.534,100.447,2.117C254.173,473.268,272.73,474.417,291.265,475.836z"/>
	<path style="fill:#F4F4F4;" d="M372.381,70.913c12.472,0.937,24.904,2.478,37.403,2.917c20.779,0.729,41.601-1.592,62.355-0.331
		c9.525,0.579,20.166,2.59,25.537,10.478c3.446,5.061,3.941,11.501,4.328,17.612c1.936,30.585,3.872,61.169,5.808,91.754
		c0.537,8.486,1.634,17.535-0.393,25.89c-1.71,7.049-1.575,12.447-1.195,19.774c0.98,18.867-2.52,37.584-4.782,56.235
		c-3.684,30.376-4.132,61.036-5.523,91.603c-0.428,9.396-1.57,20.03-9.059,25.72c-3.772,2.866-8.569,3.944-13.215,4.863
		c-29.672,5.867-60.034,8.238-90.257,7.048c-1.833-0.072-3.724-0.172-5.374-0.973c-2.844-1.382-4.348-4.509-5.42-7.483
		c-7.589-21.054-3.851-44.3-5.921-66.584c-0.342-3.68-1.141-7.83-4.277-9.785c-2.023-1.261-4.554-1.28-6.938-1.26
		c-13.016,0.111-26.031,0.221-39.046,0.332c-8.765,0.075-17.703,0.124-26.055-2.536c-1.86-0.592-3.759-1.373-5.01-2.87
		c-1.403-1.679-1.762-3.971-2.046-6.141c-1.726-13.175-2.673-26.452-2.834-39.739c-0.04-3.298,0.044-6.844,1.981-9.514
		c2.594-3.576,7.567-4.347,11.985-4.353c6.239-0.009,12.529,0.902,18.684-0.121c6.154-1.023,12.426-4.541,14.414-10.455
		c1.042-3.099,0.794-6.464,0.534-9.724c-1.174-14.731-2.348-29.462-3.523-44.192c-0.125-1.569-0.257-3.167-0.853-4.624
		c-3.016-7.366-14.339-6.158-20.853-6.676c-7.01-0.558-18.124,5.786-24.061,0.423c2.392-11.894,4.793-23.89,4.718-36.022
		c-0.08-12.902-2.962-25.648-3.303-38.545c-0.19-7.178,0.549-14.233,1.787-21.292c1.076-6.133-1.479-11.845-0.054-18.137
		c0.964-4.253,3.262-8.271,6.742-10.9c7.638-5.77,12.489-2.051,20.74-2.35c9.924-0.36,19.801-1.095,29.741-1.156
		C350.234,69.728,361.325,70.083,372.381,70.913z"/>
	<path style="fill:#F4F4F4;" d="M237.611,203.543c23.506-2.223,47.018-4.447,70.59-5.786c5.091-0.289,10.81-0.318,14.496,3.205
		c2.325,2.222,3.352,5.45,4.147,8.566c2.925,11.46,3.883,23.317,4.83,35.107c0.389,4.839,0.754,9.862-0.945,14.41
		c-2.535,6.786-9.184,11.179-15.936,13.801c-14.078,5.467-29.64,5.159-44.737,4.775c-10.861-0.276-21.723-0.553-32.584-0.829
		c-3.144-0.08-6.355-0.172-9.306-1.262c-5.164-1.908-8.861-6.707-10.641-11.916c-3.742-10.95-2.328-26.247,1.002-37.219
		C222.027,214.863,223.908,204.839,237.611,203.543z"/>
</g>
<g>
	<path style="fill:#FF3535;" d="M74.811,194.945c1.876,5.618,3.753,11.236,5.629,16.854c0.502,1.502,0.883,3.452-0.368,4.424
		c-0.556,0.432-1.295,0.526-1.994,0.606c-7.044,0.797-14.087,1.594-21.131,2.391c-3.619,0.41-12.469,3.378-15.839,1.921
		c-8.089-3.497,2.603-18.848,3.318-23.943c0.65-4.636,2.664-8.193,4.481-12.349c1.756-4.016,2.361-8.453,4.55-12.413
		c0.539-0.976,1.161-1.955,2.097-2.561C66.116,163.038,72.811,188.958,74.811,194.945z"/>
	<path style="fill:#FF3535;" d="M341.745,123.674c1.876,5.618,3.753,11.236,5.629,16.854c0.502,1.502,0.883,3.452-0.368,4.424
		c-0.556,0.432-1.294,0.526-1.994,0.606c-7.044,0.797-14.087,1.594-21.131,2.391c-3.619,0.409-12.469,3.378-15.839,1.921
		c-8.089-3.497,2.603-18.848,3.318-23.943c0.65-4.636,2.664-8.193,4.481-12.349c1.756-4.015,2.361-8.453,4.55-12.413
		c0.539-0.976,1.161-1.955,2.097-2.56C333.05,91.768,339.745,117.687,341.745,123.674z"/>
	<path style="fill:#FF3535;" d="M154.476,405.158c1.876,5.618,3.753,11.236,5.629,16.854c0.502,1.502,0.883,3.452-0.368,4.423
		c-0.556,0.432-1.295,0.526-1.994,0.606c-7.044,0.797-14.087,1.594-21.131,2.391c-3.619,0.409-12.469,3.378-15.839,1.921
		c-8.089-3.497,2.603-18.848,3.317-23.943c0.65-4.636,2.664-8.193,4.481-12.349c1.756-4.015,2.361-8.453,4.55-12.413
		c0.539-0.975,1.161-1.955,2.097-2.56C145.781,373.252,152.477,399.171,154.476,405.158z"/>
	<path style="fill:#FF3535;" d="M266.467,238.405c1.566,4.689,3.132,9.378,4.698,14.067c0.419,1.254,0.737,2.881-0.307,3.692
		c-0.464,0.361-1.081,0.439-1.665,0.505c-5.879,0.665-11.758,1.33-17.637,1.996c-3.02,0.342-10.407,2.819-13.22,1.603
		c-6.751-2.919,2.173-15.731,2.769-19.984c0.542-3.87,2.223-6.838,3.74-10.307c1.466-3.352,1.97-7.056,3.798-10.361
		c0.45-0.814,0.969-1.632,1.75-2.137C259.209,211.774,264.798,233.407,266.467,238.405z"/>
</g>
<path d="M511.888,220.498c-0.571-28.931-1.603-58.337-3.653-87.197c-0.993-13.969-1.162-28.228-2.947-42.12
	c-1.198-9.336-4.303-17.103-13.757-20.238c-11.678-3.873-26.553-3.311-38.686-3.808c-15.788-0.647-31.631-1.025-47.432-1.431
	c-30.433-0.781-60.775-0.002-91.193-0.021c-8.808-0.005-20.168-0.961-28.505,3.544c-7.427-8.33-16.464-14.781-24.374-22.614
	c-10.222-10.124-22.558-18.509-37.471-18.489c-4.526,0.006-8.981,0.388-13.556,0.388c-15.464,0-30.851,1.669-46.148,1.948
	c-14.974,0.274-30.368-0.486-44.141,6.452c-18.296,9.217-35.223,22.001-52.588,32.856c-15.897,9.938-34.435,20.148-47.161,34.198
	c-11.089,12.242-9.545,30.478-11.024,45.864c-1.936,20.134-2.709,40.311-4.128,60.471c-2.964,42.137-5.013,84.79-4.695,127.052
	c0.114,15.083-3.855,42.663,10.296,53.079c12.786,9.411,33.294,5.224,47.977,5.301c0.147,0.001,0.272-0.03,0.412-0.039
	c-0.051,16.844-0.047,33.664-0.576,50.499c-0.323,10.269-0.24,22.591,10.48,27.477c12.447,5.672,29.19,3.546,42.434,3.916
	c32.758,0.918,65.504,2.336,98.253,3.46c34.806,1.195,70.114,4.116,104.91,2.191c13.396-0.742,28.572,1.079,41.021-5.135
	c10.973-5.478,14.854-17.31,16.626-28.734c1.156-7.463,1.846-15.071,2.286-22.713c3.552-0.115,7.764,0.605,11.065,0.504
	c5.031-0.154,10.014,0.14,15.037,0.009c15.118-0.395,30.395-0.026,45.52-0.646c12.253-0.502,25.392-2.74,36.733-7.546
	c10.556-4.473,14.795-11.421,16.383-22.605c3.805-26.793,4.931-54.157,7.821-81.103
	C510.465,283.946,512.512,252.021,511.888,220.498z M242.768,77.261c1.235-9.92,4.172-21.271,2.079-31.358
	c3.902,3.018,7.475,6.492,11.085,10.127c6.952,7,14.81,13.925,22.443,20.309c-4.937,9.103-1.65,22.438-1.507,31.911
	c0.258,17.179-0.216,34.253,0.241,51.408c0.312,11.729-0.837,23.329,0.073,34.943c-3.317-0.012-6.634-0.018-9.947,0.012
	c-12.663,0.117-30.826-0.443-42.139,6.345c-10.725,6.435-10.702,17.629-11.488,28.782c-0.857,12.154-4.453,30.909,2.718,41.98
	c6.705,10.353,25.511,8.935,36.086,8.979c8.029,0.033,16.058,0.218,24.089,0.389c-1.506,7.596,0.32,16.662,0.569,23.881
	c0.262,7.639,0.051,16.471,1.58,24.307c-28.969-0.264-58,0.567-86.986,0.88c-0.009-16.725,0.01-33.45-0.04-50.175
	c-0.06-20.6-0.693-41.429-0.291-62.016c0.835-42.645,3.511-85.13,3.377-127.807c8.534,18.741,23.665,50.654,37.541,33.192
	C241.945,111.152,240.968,91.726,242.768,77.261z M314.818,201.746c7.186,1.184,8.651,6.264,9.381,14.739
	c0.577,6.681,1.165,13.396,1.494,20.095c0.772,15.764-0.451,34.187-20.179,34.825c-14.771,0.478-29.533-0.957-44.291-0.765
	c-7.179,0.093-14.303,0.328-21.465-0.379c-6.508-0.642-13.186-0.284-16.11-7.656c-1.276-3.218-0.885-8.223-1.038-11.641
	c-0.32-7.157,0.41-14.102,0.944-21.223c0.535-7.15-0.34-15.734,6.6-20.128c6.022-3.813,15.55-3.617,22.549-4.364
	c7.517-0.802,15.011-0.792,22.561-0.908C288.589,204.135,301.602,202.618,314.818,201.746z M232.689,75.197
	c-1.455,11.594-1.801,23-4.699,34.386c-0.394,1.549-0.827,3.124-1.725,4.446c-0.897,1.322-2.354,2.368-3.953,2.361
	c-2.806-0.014-4.46-4.254-5.82-6.211c-2.764-3.977-5.286-8.192-7.562-12.466c-3.254-6.116-5.401-12.983-8.476-19.215
	c10.393-1.879,20.557-6.843,27.743-14.599c2.181-2.354,4.903-5.945,7.112-9.925C235.36,61.149,233.484,68.877,232.689,75.197z
	 M170.681,39.559c10.333-0.134,20.553-0.173,30.844-1.178c6.539-0.638,13.344-1.606,20.074-2.014
	c17.684-1.072-0.197,21.41-5.922,25.482c-8.369,5.953-18.889,9.419-29.172,7.595c-16.873-2.995-29.063-16.77-40.492-28.918
	C154.212,39.896,162.471,39.665,170.681,39.559z M185.531,78.71c-1.835,3.435-3.136,7.32-4.722,10.508
	c-2.422,4.868-5.148,9.711-7.935,14.373c-1.213,2.028-2.661,5.229-4.537,6.686c-4.628,3.594-7.616,2.271-10.449-2.464
	c-4.941-8.262-5.684-21.149-8.111-30.437c-2.752-10.536-6.593-21.234-8.431-32.088C152.536,60.19,167.214,75.549,185.531,78.71z
	 M58.48,342.281c-3.683,13.217-0.45,28.521,0.435,42.515c-0.074-0.003-0.137-0.022-0.214-0.022
	c-12.465-0.028-38.858,5.497-45.277-8.595c-3.389-7.441-1.499-18.31-1.833-26.26c-0.366-8.733-0.643-17.458-0.515-26.208
	c0.52-35.675,1.025-71.776,4.04-107.326c1.409-16.599,1.961-33.287,3.184-49.91c0.661-8.969,1.536-17.897,2.416-26.845
	c0.953-9.693,0.118-19.277,6.268-27.457c10.28-13.675,29.522-23.421,43.792-32.425c14.996-9.462,29.824-19.211,44.884-28.567
	c6.158-3.826,12.028-6.915,18.575-8.761c0.928,14.691,5.257,29.03,8.447,43.339c2.315,10.38,3.351,27.811,11.9,35.551
	c7.805,7.067,16.416,1.285,21.759-5.356c3.661-4.549,6.655-9.69,9.464-14.852c-0.772,14.378-0.527,28.878-0.864,43.176
	c-0.565,23.889-2.407,47.689-3.377,71.536c-0.835,20.521,0.061,41.59,0.109,62.15c0.041,17.419-0.016,34.838-0.035,52.257
	c-14.079,0.084-28.146,0.021-42.185-0.413c-18.179-0.563-36.994-0.509-55.138,0.565C75.118,330.918,61.404,331.788,58.48,342.281z
	 M362.524,438.194c-0.635,7.544-1.21,16.992-5.218,23.728c-4.431,7.446-12.094,8.641-20.003,9.581
	c-13.909,1.655-28.53,1.344-42.525,1.208c-28.36-0.275-56.721-1.44-85.073-2.362c-25.632-0.835-51.307-0.976-76.909-2.54
	c-13.132-0.802-26.292-0.328-39.418-0.979c-7.21-0.358-19.516,0.332-23.329-7.601c-2.867-5.965-0.386-16.173-0.184-22.677
	c0.448-14.387-0.021-28.841-0.007-43.236c0.008-7.204-0.118-14.281-0.753-21.453c-0.509-5.744-3.961-21.495-0.384-26.758
	c5.787-8.515,31.38-4.068,40.131-4.386c15.167-0.551,30.265,0.271,45.406-0.022c34.09-0.66,68.251-1.22,102.357-1.36
	c14.286-0.059,28.577-0.107,42.861-0.373c10.699,0.542,21.34,0.166,32.089,0.453c5.041,0.135,10.01,0.572,15.022,1.16
	c4.956,0.582,12.271,0.098,15.599,5.015c1.754,2.593,1.739,8.035,2.014,11.073C366.605,383.269,364.759,411.606,362.524,438.194z
	 M491.679,363.255c-0.771,6.663-1.62,13.222-2.087,19.917c-0.373,5.335,0.176,13.351-2.379,18.237
	c-7.024,13.432-35.107,14.081-47.665,14.125c-14.099,0.049-28.163,0.743-42.22,0.836c-6.977,0.046-15.01-1.113-22.292-0.743
	c0.203-6.76,0.269-13.506,0.328-20.166c0.141-15.935,2.1-33.099-1.614-48.816c-3.318-14.039-16.092-15.64-28.692-16.14
	c-7.856-0.312-15.649-0.187-23.432,0.161c-10.549-0.639-21.115-1.013-31.69-1.225c-1.037-9.198-1.563-18.462-2.218-27.696
	c-0.449-6.327,0.14-13.902-1.298-20.481c6.366,0.104,12.73,0.176,19.094,0.097c32.593-0.402,31.512-34.087,29.45-58.641
	c-0.928-11.051,0.329-28.69-13.996-31.113c-8.635-1.461-19.272,0.245-27.919,1.104c-3.166,0.314-6.257,0.669-9.326,1.067
	c2.526-19.779,2.408-39.064,3.302-59.117c0.562-12.618,0.595-25.43-0.172-38.03c-0.351-5.779-1.862-13.355,3.333-17.46
	c5.012-3.961,13.657-2.894,19.566-2.909c51.953-0.127,103.79-0.93,155.68,2.387c6.932,0.443,14.753-0.19,21.437,2.124
	c7.262,2.515,7.588,7.842,8.261,14.62c1.248,12.576,1.612,25.3,2.497,37.909c1.768,25.194,1.413,50.461,3.012,75.677
	C503.878,260.025,497.543,312.568,491.679,363.255z"/>
<path d="M86.841,217.969c1.046-3.461-2.494-9.732-3.603-12.993c-1.789-5.267-3.415-10.598-5.631-15.711
	c-3.143-7.253-8.201-19.721-15.207-24.071c-5.432-3.372-8.958-0.291-11.108,5.035c-4.04,10.006-9.009,20.164-11.235,30.836
	c-0.442,0.944-0.889,1.889-1.293,2.823c-2.24,5.181-9.253,15.796-1.771,19.686c3.166,1.646,8.006-0.154,11.191-0.143
	c5.16,0.019,9.664,0.427,14.901-0.12C68.558,222.738,84.575,225.475,86.841,217.969z M73.403,215.853
	c-6.765,2.261-18.962,1.68-22.798,1.513c-1.961-0.085-3.737-0.109-5.678,0.051c-7.019,0.579-4.917-1.266-2.698-6.742
	c4.331-10.69,10.848-21.973,13.425-33.516c0.251-0.696,0.495-1.394,0.769-2.084c3.188-8.036,3.53-2.593,6.308,1.589
	c4.965,7.474,8.769,15.435,11.747,23.88c1.106,3.139,2.224,6.301,3.302,9.449C78.78,212.91,76.759,214.731,73.403,215.853z"/>
<path d="M126.131,179.325c11.386,0.412,23.547,1.957,34.782-0.061c1.674-0.301,1.434-2.715,0-3.154
	c-9.923-3.039-21.167-1.851-31.461-2.036c-10.214-0.183-24.102-2.045-33.669,1.942c-0.333,0.139-0.564,0.59-0.233,0.881
	C102.1,182.64,118.014,179.031,126.131,179.325z"/>
<path d="M126.131,196.772c11.386,0.412,23.547,1.958,34.782-0.061c1.674-0.301,1.434-2.715,0-3.154
	c-9.923-3.039-21.167-1.851-31.461-2.036c-10.214-0.183-24.102-2.045-33.669,1.942c-0.333,0.139-0.564,0.59-0.233,0.881
	C102.1,200.087,118.014,196.479,126.131,196.772z"/>
<path d="M126.131,214.22c11.386,0.412,23.547,1.958,34.782-0.061c1.674-0.301,1.434-2.715,0-3.154
	c-9.923-3.039-21.167-1.851-31.461-2.036c-10.214-0.184-24.102-2.045-33.669,1.942c-0.333,0.139-0.564,0.59-0.233,0.881
	C102.1,217.534,118.014,213.926,126.131,214.22z"/>
<path d="M156.702,399.796c-3.143-7.254-8.201-19.721-15.207-24.071c-5.432-3.372-8.958-0.291-11.108,5.034
	c-4.04,10.006-9.009,20.164-11.235,30.836c-0.442,0.944-0.889,1.889-1.293,2.823c-2.24,5.181-9.253,15.796-1.771,19.686
	c3.166,1.646,8.006-0.155,11.191-0.143c5.16,0.019,9.664,0.427,14.901-0.12c5.473-0.573,21.49,2.164,23.756-5.342
	c1.046-3.461-2.494-9.732-3.603-12.993C160.544,410.24,158.919,404.909,156.702,399.796z M152.497,426.384
	c-6.765,2.261-18.962,1.68-22.798,1.513c-1.961-0.085-3.737-0.109-5.678,0.051c-7.019,0.579-4.917-1.266-2.698-6.742
	c4.331-10.69,10.848-21.973,13.425-33.516c0.251-0.696,0.495-1.394,0.769-2.084c3.188-8.036,3.53-2.593,6.308,1.589
	c4.965,7.474,8.769,15.435,11.747,23.88c1.106,3.139,2.224,6.301,3.302,9.449C157.875,423.442,155.854,425.263,152.497,426.384z"/>
<path d="M240.008,386.642c-9.923-3.039-21.167-1.851-31.461-2.036c-10.214-0.183-24.101-2.045-33.669,1.942
	c-0.333,0.139-0.564,0.59-0.233,0.881c6.55,5.743,22.464,2.135,30.581,2.429c11.386,0.412,23.547,1.957,34.782-0.061
	C241.682,389.495,241.442,387.081,240.008,386.642z"/>
<path d="M240.008,404.089c-9.923-3.039-21.167-1.851-31.461-2.036c-10.214-0.183-24.101-2.045-33.669,1.942
	c-0.333,0.139-0.564,0.59-0.233,0.881c6.55,5.743,22.464,2.135,30.581,2.429c11.386,0.412,23.547,1.957,34.782-0.061
	C241.682,406.943,241.442,404.528,240.008,404.089z"/>
<path d="M240.008,421.536c-9.923-3.039-21.167-1.851-31.461-2.036c-10.214-0.183-24.101-2.045-33.669,1.942
	c-0.333,0.139-0.564,0.59-0.233,0.881c6.55,5.743,22.464,2.135,30.581,2.429c11.386,0.412,23.547,1.957,34.782-0.061
	C241.682,424.39,241.442,421.975,240.008,421.536z"/>
<path d="M345.716,118.312c-3.143-7.254-8.201-19.721-15.207-24.071c-5.432-3.372-8.958-0.291-11.108,5.035
	c-4.244,10.51-8.779,21.319-12.37,32.009c-1.838,5.472-9.736,17.278-1.928,21.337c3.166,1.646,8.006-0.155,11.191-0.143
	c5.16,0.019,9.664,0.427,14.901-0.12c5.473-0.573,21.49,2.164,23.756-5.342c1.046-3.461-2.495-9.732-3.603-12.994
	C349.557,128.756,347.932,123.424,345.716,118.312z M341.511,144.9c-6.766,2.261-18.962,1.68-22.798,1.513
	c-1.961-0.085-3.737-0.109-5.678,0.051c-7.019,0.579-4.917-1.266-2.698-6.742c4.331-10.69,10.848-21.973,13.425-33.515
	c0.251-0.696,0.495-1.394,0.769-2.084c3.188-8.036,3.53-2.593,6.308,1.589c4.965,7.474,8.769,15.435,11.747,23.88
	c1.106,3.139,2.224,6.301,3.302,9.449C346.888,141.957,344.867,143.778,341.511,144.9z"/>
<path d="M429.021,105.157c-9.923-3.039-21.167-1.851-31.461-2.036c-10.214-0.183-24.102-2.045-33.669,1.942
	c-0.333,0.139-0.564,0.59-0.233,0.881c6.55,5.743,22.464,2.135,30.581,2.429c11.386,0.412,23.547,1.957,34.782-0.061
	C430.696,108.011,430.455,105.596,429.021,105.157z"/>
<path d="M429.021,122.605c-9.923-3.039-21.167-1.851-31.461-2.036c-10.214-0.183-24.102-2.045-33.669,1.942
	c-0.333,0.139-0.564,0.59-0.233,0.881c6.55,5.743,22.464,2.135,30.581,2.429c11.386,0.412,23.547,1.957,34.782-0.061
	C430.696,125.458,430.455,123.044,429.021,122.605z"/>
<path d="M429.021,140.052c-9.923-3.039-21.167-1.851-31.461-2.036c-10.214-0.184-24.102-2.045-33.669,1.942
	c-0.333,0.139-0.564,0.59-0.233,0.881c6.55,5.743,22.464,2.135,30.581,2.428c11.386,0.412,23.547,1.957,34.782-0.061
	C430.696,142.906,430.455,140.491,429.021,140.052z"/>
<path d="M268.779,234.026c-2.466-5.691-6.435-15.473-11.931-18.886c-4.262-2.646-7.029-0.228-8.716,3.95
	c-3.17,7.85-7.068,15.82-8.814,24.193c-0.346,0.741-0.698,1.482-1.014,2.215c-1.757,4.065-7.259,12.393-1.389,15.445
	c2.484,1.291,6.282-0.121,8.781-0.112c4.048,0.015,7.582,0.335,11.691-0.094c4.294-0.449,16.86,1.698,18.639-4.191
	c0.82-2.715-1.958-7.636-2.827-10.194C271.793,242.22,270.517,238.037,268.779,234.026z M265.481,254.886
	c-5.309,1.774-14.878,1.318-17.888,1.187c-1.538-0.067-2.932-0.086-4.455,0.04c-5.506,0.455-3.857-0.994-2.116-5.29
	c3.399-8.387,8.511-17.24,10.533-26.295c0.198-0.546,0.389-1.093,0.603-1.635c2.502-6.305,2.77-2.034,4.949,1.246
	c3.895,5.864,6.88,12.11,9.217,18.736c0.868,2.463,1.745,4.944,2.591,7.413C269.698,252.578,268.114,254.006,265.481,254.886z"/>
<path d="M298.243,229.325c5.36,0.006,11.934,0.595,16.827-1.853c1.778-0.89,1.016-4.142-1.055-3.895
	c-5.143,0.613-10.577,0.383-15.772,0.672c-3.746,0.208-8.988-0.48-12.429,0.966c-0.649,0.272-1.181,1.225-0.474,1.792
	C289.048,229.972,293.725,229.32,298.243,229.325z"/>
<path d="M298.243,240.375c5.36,0.006,11.934,0.595,16.827-1.853c1.778-0.89,1.016-4.142-1.055-3.895
	c-5.143,0.613-10.577,0.383-15.772,0.672c-3.746,0.208-8.988-0.48-12.429,0.966c-0.649,0.272-1.181,1.225-0.474,1.792
	C289.048,241.022,293.725,240.37,298.243,240.375z"/>
<path d="M298.243,251.425c5.36,0.006,11.934,0.595,16.827-1.853c1.778-0.89,1.016-4.142-1.055-3.895
	c-5.143,0.613-10.577,0.383-15.772,0.672c-3.746,0.208-8.988-0.48-12.429,0.966c-0.649,0.272-1.181,1.225-0.474,1.792
	C289.048,252.072,293.725,251.42,298.243,251.425z"/>
<g>
</g>
<g>
</g>
<g>
</g>
<g>
</g>
<g>
</g>
<g>
</g>
<g>
</g>
<g>
</g>
<g>
</g>
<g>
</g>
<g>
</g>
<g>
</g>
<g>
</g>
<g>
</g>
<g>
</g>
</svg>
